<svg width="1200" height="430" viewBox="0 0 1200 430" fill="none" xmlns="http://www.w3.org/2000/svg" role="img" aria-labelledby="title desc">
  <title id="title">0xCD4 OSINT mindset banner</title>
  <desc id="desc">OSINT araştırma zihniyetini soru, kaynak, bağlam, doğrulama ve rapor adımlarıyla anlatan çizim banner.</desc>
  <defs>
    <linearGradient id="bg" x1="0" y1="0" x2="1200" y2="430" gradientUnits="userSpaceOnUse">
      <stop stop-color="#fbfbf8"/>
      <stop offset="0.55" stop-color="#f5f7fa"/>
      <stop offset="1" stop-color="#edf2f7"/>
    </linearGradient>
    <linearGradient id="accent" x1="50" y1="44" x2="1150" y2="44" gradientUnits="userSpaceOnUse">
      <stop stop-color="#dc1f35"/>
      <stop offset="0.48" stop-color="#f59e0b"/>
      <stop offset="1" stop-color="#0f9f6e"/>
    </linearGradient>
    <filter id="shadow" x="-20%" y="-20%" width="140%" height="140%">
      <feDropShadow dx="0" dy="18" stdDeviation="18" flood-color="#0f172a" flood-opacity="0.10"/>
    </filter>
    <pattern id="grid" width="44" height="44" patternUnits="userSpaceOnUse">
      <path d="M44 0H0V44" stroke="#d8dee5" stroke-width="1" opacity="0.28"/>
    </pattern>
  </defs>

  <rect width="1200" height="430" rx="30" fill="url(#bg)"/>
  <rect width="1200" height="430" rx="30" fill="url(#grid)"/>
  <path d="M32 8C224 12 418 7 606 9C781 12 982 7 1168 10" stroke="url(#accent)" stroke-width="4.2" stroke-linecap="round"/>

  <g filter="url(#shadow)">
    <path d="M62 56C212 47 354 58 506 52C684 45 854 54 1032 50C1086 49 1126 54 1153 63C1162 158 1157 286 1143 370C966 383 802 374 617 381C430 389 247 375 72 380C55 282 50 157 62 56Z" fill="white" fill-opacity="0.78" stroke="#c8d1dc" stroke-width="2.1"/>
  </g>

  <g>
    <text x="96" y="101" fill="#dc1f35" font-family="Inter, Segoe UI, Arial, sans-serif" font-size="18" font-weight="800" letter-spacing="5">0xCD4 / CSINT</text>
    <text x="96" y="153" fill="#111722" font-family="Inter, Segoe UI, Arial, sans-serif" font-size="46" font-weight="850">OSINT mindset</text>
    <text x="98" y="186" fill="#4f5c6d" font-family="Inter, Segoe UI, Arial, sans-serif" font-size="20">önce soru, sonra kaynak</text>
    <text x="98" y="213" fill="#69788a" font-family="Inter, Segoe UI, Arial, sans-serif" font-size="17">first the question, then the source</text>

    <path d="M96 239C148 231 203 243 260 235C314 228 364 236 415 231" stroke="#dc1f35" stroke-width="2.4" stroke-linecap="round" opacity="0.56"/>
    <path d="M99 253C157 247 217 255 276 250C333 245 374 251 421 247" stroke="#dc1f35" stroke-width="1.4" stroke-linecap="round" opacity="0.28"/>

    <text x="96" y="306" fill="#111722" font-family="Inter, Segoe UI, Arial, sans-serif" font-size="19" font-weight="700">tek iz kanıt değildir</text>
    <text x="96" y="333" fill="#111722" font-family="Inter, Segoe UI, Arial, sans-serif" font-size="19" font-weight="700">bağlam olmadan rapor yazılmaz</text>
    <text x="96" y="360" fill="#111722" font-family="Inter, Segoe UI, Arial, sans-serif" font-size="19" font-weight="700">bulmak paylaşmak demek değildir</text>
  </g>

  <g>
    <path d="M508 122C559 115 608 123 659 119C664 157 664 205 657 240C606 246 556 239 504 244C496 204 499 158 508 122Z" fill="#f8fafc" stroke="#c8d1dc" stroke-width="2"/>
    <text x="530" y="157" fill="#111722" font-family="Inter, Segoe UI, Arial, sans-serif" font-size="18" font-weight="800">soru</text>
    <text x="530" y="181" fill="#69788a" font-family="Inter, Segoe UI, Arial, sans-serif" font-size="13">question</text>
    <path d="M530 204C562 198 601 202 633 198" stroke="#dc1f35" stroke-width="2.2" stroke-linecap="round"/>
  </g>

  <g>
    <path d="M699 93C756 87 815 94 872 90C878 132 875 184 868 224C810 230 754 222 696 227C688 183 691 135 699 93Z" fill="#f8fafc" stroke="#c8d1dc" stroke-width="2"/>
    <text x="722" y="130" fill="#111722" font-family="Inter, Segoe UI, Arial, sans-serif" font-size="18" font-weight="800">kaynak</text>
    <text x="722" y="154" fill="#69788a" font-family="Inter, Segoe UI, Arial, sans-serif" font-size="13">source</text>
    <text x="722" y="184" fill="#4f5c6d" font-family="Inter, Segoe UI, Arial, sans-serif" font-size="14">link değil</text>
    <text x="722" y="205" fill="#4f5c6d" font-family="Inter, Segoe UI, Arial, sans-serif" font-size="14">bağlamla okunur</text>
  </g>

  <g>
    <path d="M731 264C789 255 849 263 906 258C912 301 908 339 901 365C843 371 788 365 730 368C722 333 723 296 731 264Z" fill="#ecfdf5" stroke="#a7f3d0" stroke-width="2"/>
    <text x="754" y="300" fill="#065f46" font-family="Inter, Segoe UI, Arial, sans-serif" font-size="18" font-weight="800">doğrulama</text>
    <text x="754" y="324" fill="#047857" font-family="Inter, Segoe UI, Arial, sans-serif" font-size="13">verification</text>
    <path d="M754 342C793 334 834 341 875 336" stroke="#0f9f6e" stroke-width="2.5" stroke-linecap="round"/>
  </g>

  <g>
    <path d="M945 121C995 111 1055 118 1104 128C1108 175 1104 229 1096 270C1041 277 992 267 939 273C930 223 932 166 945 121Z" fill="#fff7ed" stroke="#fed7aa" stroke-width="2"/>
    <text x="969" y="159" fill="#9a3412" font-family="Inter, Segoe UI, Arial, sans-serif" font-size="18" font-weight="800">rapor</text>
    <text x="969" y="183" fill="#c2410c" font-family="Inter, Segoe UI, Arial, sans-serif" font-size="13">report</text>
    <text x="969" y="215" fill="#9a3412" font-family="Inter, Segoe UI, Arial, sans-serif" font-size="14">kanıt</text>
    <text x="1020" y="215" fill="#9a3412" font-family="Inter, Segoe UI, Arial, sans-serif" font-size="14">sınır</text>
    <path d="M968 235C1001 229 1040 235 1070 231" stroke="#f97316" stroke-width="2.3" stroke-linecap="round"/>
  </g>

  <path d="M427 227C468 177 485 182 508 178" stroke="#dc1f35" stroke-width="2.6" stroke-linecap="round" opacity="0.55"/>
  <path d="M658 171C681 149 683 147 700 145" stroke="#dc1f35" stroke-width="2.6" stroke-linecap="round" opacity="0.55"/>
  <path d="M870 166C915 165 921 166 945 174" stroke="#dc1f35" stroke-width="2.6" stroke-linecap="round" opacity="0.55"/>
  <path d="M870 221C836 247 809 254 788 263" stroke="#dc1f35" stroke-width="2.1" stroke-linecap="round" opacity="0.38"/>

  <g>
    <circle cx="508" cy="178" r="10" fill="#fff" stroke="#dc1f35" stroke-width="2.6"/>
    <circle cx="700" cy="145" r="10" fill="#fff" stroke="#dc1f35" stroke-width="2.6"/>
    <circle cx="945" cy="174" r="10" fill="#fff" stroke="#dc1f35" stroke-width="2.6"/>
    <circle cx="788" cy="263" r="10" fill="#fff" stroke="#dc1f35" stroke-width="2.6"/>
    <circle cx="508" cy="178" r="3" fill="#111722"/>
    <circle cx="700" cy="145" r="3" fill="#111722"/>
    <circle cx="945" cy="174" r="3" fill="#111722"/>
    <circle cx="788" cy="263" r="3" fill="#111722"/>
  </g>

  <g opacity="0.52">
    <path d="M504 313C554 302 594 315 641 307C678 301 704 309 734 303" stroke="#0f172a" stroke-width="2" stroke-linecap="round"/>
    <path d="M506 333C548 326 586 335 631 330" stroke="#0f172a" stroke-width="1.5" stroke-linecap="round"/>
  </g>
</svg>
